<svg id="visual" viewBox="0 0 900 600" width="900" height="600" xmlns="http://www.w3.org/2000/svg" xmlns:xlink="http://www.w3.org/1999/xlink" version="1.1"><g stroke-width="1" stroke-linejoin="bevel"><path d="M493.3 375L418.7 467L524.3 489Z" fill="#277297" stroke="#277297"></path><path d="M493.3 375L354.7 392L418.7 467Z" fill="#1d4e6b" stroke="#1d4e6b"></path><path d="M413.7 600L477.3 600L418.7 467Z" fill="#1d4e6b" stroke="#1d4e6b"></path><path d="M418.7 467L477.3 600L524.3 489Z" fill="#081a28" stroke="#081a28"></path><path d="M252.1 440L413.7 600L418.7 467Z" fill="#1d4e6b" stroke="#1d4e6b"></path><path d="M477.3 600L645.9 505L524.3 489Z" fill="#0c2435" stroke="#0c2435"></path><path d="M524.3 489L645.9 505L493.3 375Z" fill="#246688" stroke="#246688"></path><path d="M535.3 215L365.7 259L493.3 375Z" fill="#0c2435" stroke="#0c2435"></path><path d="M493.3 375L365.7 259L354.7 392Z" fill="#246688" stroke="#246688"></path><path d="M233.1 364L252.1 440L354.7 392Z" fill="#1d4e6b" stroke="#1d4e6b"></path><path d="M354.7 392L252.1 440L418.7 467Z" fill="#19435d" stroke="#19435d"></path><path d="M645.9 505L677.9 328L493.3 375Z" fill="#081a28" stroke="#081a28"></path><path d="M677.9 328L535.3 215L493.3 375Z" fill="#0c2435" stroke="#0c2435"></path><path d="M477.3 600L680.9 600L645.9 505Z" fill="#0c2435" stroke="#0c2435"></path><path d="M645.9 505L738.4 452L677.9 328Z" fill="#205a7a" stroke="#205a7a"></path><path d="M365.7 259L233.1 364L354.7 392Z" fill="#081a28" stroke="#081a28"></path><path d="M680.9 600L738.4 452L645.9 505Z" fill="#205a7a" stroke="#205a7a"></path><path d="M802.4 214L627.9 214L677.9 328Z" fill="#00101c" stroke="#00101c"></path><path d="M677.9 328L627.9 214L535.3 215Z" fill="#112e42" stroke="#112e42"></path><path d="M738.4 452L761.4 376L677.9 328Z" fill="#1d4e6b" stroke="#1d4e6b"></path><path d="M110.6 455L232.1 600L252.1 440Z" fill="#081a28" stroke="#081a28"></path><path d="M252.1 440L232.1 600L413.7 600Z" fill="#15384f" stroke="#15384f"></path><path d="M365.7 259L217.1 254L233.1 364Z" fill="#00101c" stroke="#00101c"></path><path d="M233.1 364L110.6 455L252.1 440Z" fill="#0c2435" stroke="#0c2435"></path><path d="M283.1 151L217.1 254L365.7 259Z" fill="#205a7a" stroke="#205a7a"></path><path d="M609.9 106L492.3 113L535.3 215Z" fill="#19435d" stroke="#19435d"></path><path d="M535.3 215L492.3 113L365.7 259Z" fill="#1d4e6b" stroke="#1d4e6b"></path><path d="M680.9 600L773.4 600L738.4 452Z" fill="#297ea6" stroke="#297ea6"></path><path d="M738.4 452L900 449L761.4 376Z" fill="#246688" stroke="#246688"></path><path d="M413.7 89L283.1 151L365.7 259Z" fill="#1d4e6b" stroke="#1d4e6b"></path><path d="M492.3 113L413.7 89L365.7 259Z" fill="#277297" stroke="#277297"></path><path d="M745.4 86L609.9 106L627.9 214Z" fill="#15384f" stroke="#15384f"></path><path d="M627.9 214L609.9 106L535.3 215Z" fill="#15384f" stroke="#15384f"></path><path d="M492.3 113L417.7 0L413.7 89Z" fill="#15384f" stroke="#15384f"></path><path d="M96.6 381L110.6 455L233.1 364Z" fill="#297ea6" stroke="#297ea6"></path><path d="M101.6 234L96.6 381L217.1 254Z" fill="#112e42" stroke="#112e42"></path><path d="M217.1 254L96.6 381L233.1 364Z" fill="#205a7a" stroke="#205a7a"></path><path d="M761.4 376L802.4 214L677.9 328Z" fill="#246688" stroke="#246688"></path><path d="M900 374L802.4 214L761.4 376Z" fill="#297ea6" stroke="#297ea6"></path><path d="M0 455L109.6 600L110.6 455Z" fill="#00101c" stroke="#00101c"></path><path d="M110.6 455L109.6 600L232.1 600Z" fill="#0c2435" stroke="#0c2435"></path><path d="M773.4 600L900 449L738.4 452Z" fill="#1d4e6b" stroke="#1d4e6b"></path><path d="M900 449L900 374L761.4 376Z" fill="#246688" stroke="#246688"></path><path d="M105.6 112L101.6 234L217.1 254Z" fill="#19435d" stroke="#19435d"></path><path d="M105.6 112L217.1 254L283.1 151Z" fill="#277297" stroke="#277297"></path><path d="M900 149L745.4 86L802.4 214Z" fill="#0c2435" stroke="#0c2435"></path><path d="M802.4 214L745.4 86L627.9 214Z" fill="#277297" stroke="#277297"></path><path d="M541.3 0L417.7 0L492.3 113Z" fill="#277297" stroke="#277297"></path><path d="M541.3 0L492.3 113L609.9 106Z" fill="#277297" stroke="#277297"></path><path d="M413.7 89L239.1 0L283.1 151Z" fill="#205a7a" stroke="#205a7a"></path><path d="M675.9 0L541.3 0L609.9 106Z" fill="#112e42" stroke="#112e42"></path><path d="M773.4 600L900 600L900 449Z" fill="#246688" stroke="#246688"></path><path d="M900 374L900 237L802.4 214Z" fill="#081a28" stroke="#081a28"></path><path d="M96.6 381L0 455L110.6 455Z" fill="#246688" stroke="#246688"></path><path d="M0 392L0 455L96.6 381Z" fill="#1d4e6b" stroke="#1d4e6b"></path><path d="M0 220L0 392L96.6 381Z" fill="#246688" stroke="#246688"></path><path d="M807.4 0L675.9 0L745.4 86Z" fill="#112e42" stroke="#112e42"></path><path d="M745.4 86L675.9 0L609.9 106Z" fill="#205a7a" stroke="#205a7a"></path><path d="M239.1 0L105.6 112L283.1 151Z" fill="#081a28" stroke="#081a28"></path><path d="M101.6 234L0 220L96.6 381Z" fill="#112e42" stroke="#112e42"></path><path d="M417.7 0L239.1 0L413.7 89Z" fill="#15384f" stroke="#15384f"></path><path d="M0 455L0 600L109.6 600Z" fill="#112e42" stroke="#112e42"></path><path d="M900 237L900 149L802.4 214Z" fill="#15384f" stroke="#15384f"></path><path d="M0 154L0 220L101.6 234Z" fill="#00101c" stroke="#00101c"></path><path d="M900 149L807.4 0L745.4 86Z" fill="#1d4e6b" stroke="#1d4e6b"></path><path d="M0 0L0 154L105.6 112Z" fill="#00101c" stroke="#00101c"></path><path d="M105.6 112L0 154L101.6 234Z" fill="#19435d" stroke="#19435d"></path><path d="M239.1 0L117.6 0L105.6 112Z" fill="#1d4e6b" stroke="#1d4e6b"></path><path d="M900 149L900 0L807.4 0Z" fill="#205a7a" stroke="#205a7a"></path><path d="M117.6 0L0 0L105.6 112Z" fill="#19435d" stroke="#19435d"></path></g></svg>